<?xml version="1.0" standalone="no"?>
<!DOCTYPE svg PUBLIC "-//W3C//DTD SVG 20010904//EN"
 "http://www.w3.org/TR/2001/REC-SVG-20010904/DTD/svg10.dtd">
<svg version="1.0" xmlns="http://www.w3.org/2000/svg"
 width="512.000000pt" height="512.000000pt" viewBox="0 0 512.000000 512.000000"
 preserveAspectRatio="xMidYMid meet">

<g transform="translate(0.000000,512.000000) scale(0.100000,-0.100000)"
fill="#000000" stroke="none">
<path d="M1356 5083 c3 -21 18 -122 33 -225 l28 -188 -109 0 -108 0 0 -82 0
-83 318 -520 318 -520 82 -3 c62 -2 82 0 82 10 0 7 -25 176 -54 375 -29 200
-51 365 -48 368 3 3 45 5 94 5 73 0 88 3 88 15 0 9 -39 211 -86 450 l-87 435
-278 0 -279 0 6 -37z m483 -391 c30 -152 56 -287 59 -299 4 -23 2 -23 -87 -23
-50 0 -91 -3 -91 -7 0 -5 18 -126 39 -271 21 -144 34 -259 29 -254 -5 5 -101
159 -213 343 l-204 334 109 3 c61 1 110 6 110 11 0 4 -13 96 -30 204 -16 108
-30 206 -30 217 0 19 6 20 128 20 l127 0 54 -278z"/>
<path d="M2441 5104 c-30 -8 -72 -23 -95 -33 -95 -42 -226 -168 -226 -215 1
-24 115 -565 121 -570 2 -2 65 -38 139 -81 74 -43 137 -79 139 -81 2 -2 -26
-71 -62 -154 l-67 -150 65 -146 c36 -81 65 -150 65 -153 0 -4 -62 -42 -137
-86 -76 -43 -140 -80 -141 -81 -2 -1 -19 -73 -38 -160 -18 -86 -36 -159 -38
-161 -2 -3 -77 3 -165 12 l-161 17 -122 -110 -123 -110 -32 26 c-17 15 -66 58
-108 96 l-76 70 -67 -33 c-430 -212 -527 -855 -182 -1200 28 -28 69 -63 90
-77 l39 -26 -40 -50 c-48 -61 -101 -171 -125 -258 -28 -100 -26 -292 5 -390
65 -212 215 -389 403 -475 153 -70 394 -88 520 -40 12 5 19 -8 32 -65 54 -239
276 -420 517 -420 125 0 265 58 357 148 32 31 66 68 75 82 16 24 17 25 28 5
25 -42 137 -142 195 -172 239 -126 527 -52 677 174 46 69 87 172 87 217 0 34
8 36 70 19 77 -21 257 -21 338 1 265 71 474 284 548 557 24 88 24 271 0 359
-24 87 -66 175 -121 249 l-45 60 44 30 c115 79 223 239 268 397 29 103 32 305
5 404 -42 157 -147 317 -267 405 l-49 36 33 52 c96 151 112 344 42 501 -44 97
-133 194 -231 251 -17 10 -16 15 10 80 37 92 46 246 20 344 -39 150 -135 286
-260 370 -103 69 -184 93 -307 94 l-96 0 -7 44 c-12 79 -78 194 -153 264 -168
159 -397 192 -603 88 -58 -29 -172 -130 -198 -174 -11 -20 -12 -19 -28 5 -9
14 -43 51 -75 82 -126 123 -322 176 -487 132z m263 -165 c79 -29 165 -110 202
-191 l29 -63 3 -1437 2 -1438 40 0 40 0 0 -75 0 -75 -40 0 -40 0 0 -593 c0
-639 -2 -665 -53 -721 -63 -69 -276 -82 -407 -25 -60 27 -88 54 -116 114 -20
42 -24 66 -24 146 l0 97 40 48 c57 69 125 209 145 300 25 110 17 292 -18 391
-31 90 -85 187 -134 241 l-38 42 -52 -51 c-29 -28 -53 -53 -53 -56 0 -2 16
-24 35 -47 68 -83 124 -243 125 -353 0 -54 -24 -178 -44 -225 -26 -61 -200
-159 -351 -198 -230 -59 -440 14 -556 192 -51 80 -73 165 -67 271 8 155 77
255 305 438 67 54 124 102 127 107 2 4 -50 30 -117 57 -325 130 -391 181 -448
346 -50 147 -8 371 87 460 l23 21 113 -102 c79 -71 114 -97 116 -86 2 11 14
16 36 16 29 0 55 19 180 131 l147 132 217 -23 c119 -12 218 -23 220 -25 2 -1
-10 -6 -25 -10 -30 -7 -87 -47 -115 -80 -10 -11 -25 -43 -34 -71 -21 -65 -13
-126 26 -187 84 -133 285 -139 372 -10 98 142 18 326 -154 357 -21 4 -38 12
-38 19 0 26 90 431 97 438 5 4 91 55 193 114 102 58 189 110 194 115 5 5 -29
94 -83 214 -50 114 -91 211 -91 216 0 6 41 101 90 212 50 111 90 205 90 209 0
4 -82 55 -182 113 -101 58 -191 111 -201 118 -12 9 -30 72 -62 221 -25 115
-45 215 -45 222 0 52 180 67 294 24z m933 -14 c106 -52 186 -157 200 -264 5
-39 5 -39 -58 -72 -90 -48 -194 -155 -241 -249 -43 -85 -68 -174 -68 -237 l0
-43 74 0 73 0 11 66 c29 175 142 307 312 364 53 18 82 21 156 18 81 -3 100 -8
167 -41 217 -107 317 -373 219 -580 -16 -34 -50 -89 -75 -122 l-46 -60 47 -13
c212 -58 320 -170 338 -351 8 -68 -14 -163 -50 -219 -28 -45 -73 -91 -139
-143 -26 -21 -47 -42 -46 -46 1 -4 39 -23 83 -41 159 -66 239 -139 305 -277
50 -103 65 -168 64 -285 -1 -262 -135 -460 -376 -555 -42 -16 -76 -33 -74 -37
1 -3 38 -37 81 -75 92 -78 155 -167 188 -262 19 -55 23 -87 23 -191 0 -162
-15 -208 -96 -294 -100 -107 -227 -160 -384 -159 -172 0 -311 58 -435 183
-115 114 -170 235 -186 405 -8 82 3 113 65 195 l41 54 -52 53 -52 53 -29 -28
c-43 -41 -112 -158 -140 -238 -84 -235 -42 -497 111 -696 l52 -67 0 -93 c0
-77 -4 -102 -24 -143 -56 -119 -180 -167 -296 -114 -56 25 -86 53 -113 104
l-22 40 -3 2145 c-2 1547 0 2159 8 2197 33 153 206 206 387 118z m-1170 -2397
c47 -44 16 -118 -49 -118 -42 0 -68 25 -68 67 0 65 69 96 117 51z"/>
<path d="M3985 3236 c-119 -30 -237 -121 -289 -224 -15 -29 -29 -52 -32 -52
-3 0 -19 9 -34 20 -70 50 -199 92 -317 105 l-63 7 0 -80 0 -79 64 -6 c260 -24
471 -237 502 -506 l7 -61 73 0 74 0 0 53 c0 111 -58 271 -137 379 -38 52 -38
68 3 149 40 80 118 136 205 146 l49 6 0 78 0 79 -27 -1 c-16 0 -50 -6 -78 -13z"/>
<path d="M620 4585 l0 -75 -75 0 -75 0 0 -75 0 -75 75 0 75 0 0 -75 0 -75 75
0 75 0 0 75 0 75 75 0 75 0 0 75 0 75 -75 0 -75 0 0 75 0 75 -75 0 -75 0 0
-75z"/>
<path d="M450 3905 c0 -94 -2 -105 -18 -105 -10 0 -108 14 -217 30 -109 17
-203 30 -207 30 -4 0 -8 -125 -8 -278 l0 -277 443 -88 c243 -48 445 -88 450
-87 4 0 7 43 7 96 l0 96 28 -6 c15 -3 173 -26 352 -51 179 -25 338 -48 353
-51 l28 -6 -3 84 -3 83 -270 167 c-148 92 -274 167 -280 167 -11 0 -75 -100
-75 -117 0 -6 60 -47 132 -91 73 -45 124 -81 114 -81 -10 0 -126 16 -257 35
-132 19 -246 35 -254 35 -12 0 -15 -18 -15 -90 0 -49 -1 -90 -3 -90 -5 0 -549
109 -574 115 -22 5 -23 9 -23 134 l0 128 193 -28 c105 -16 207 -31 225 -34
l32 -6 0 111 c0 60 2 110 4 110 2 0 63 -36 136 -81 72 -44 133 -79 134 -77 11
15 67 111 69 118 1 5 -71 54 -161 109 l-163 101 -84 0 -85 0 0 -105z"/>
<path d="M375 2913 c-81 -42 -127 -116 -127 -203 0 -125 94 -220 217 -220 132
0 224 90 225 218 0 90 -43 162 -122 203 -47 24 -150 25 -193 2z m145 -153 c43
-43 11 -120 -50 -120 -38 0 -70 32 -70 70 0 38 32 70 70 70 17 0 39 -9 50 -20z"/>
</g>
</svg>
